<svg id="Capa_1" data-name="Capa 1" xmlns="http://www.w3.org/2000/svg" viewBox="0 0 1079 1220"><defs><style>.cls-1{fill:#fff;}.cls-2{fill:#2d2e82;}.cls-3{fill:#e20613;}.cls-4{fill:#f6bb93;}.cls-5,.cls-7{fill:#010202;}.cls-6{fill:#2d2d2a;}.cls-7{stroke:#010202;stroke-width:0.25px;}.cls-11,.cls-7{stroke-miterlimit:10;}.cls-8{fill:#eda97d;}.cls-9{fill:#151615;}.cls-10{fill:#fcee21;opacity:0.59;}.cls-11{fill:none;stroke:#e3e3e2;stroke-linecap:round;stroke-width:9px;}.cls-12{fill:#e3e3e2;}.cls-13{fill:#1e1711;}</style></defs><rect class="cls-1" width="1079" height="1220"/><path class="cls-2" d="M470,847.46c-15.9,0-38.9,1.13-46,1.13-4.26,0-7.66-2.83-7.66-8.8,0-6.53,3.4-9.08,7.66-9.08,1.14,0,4,.57,5.11.57,7.1,0,8.52-4.83,9.09-18.17.56-15.62,1.42-37.77,1.42-59.92,0-16.75-.57-33.5-1.42-47.7-.57-9.08-1.14-18.17-8.24-18.17-2.27,0-4.54.86-6,.86-5.39,0-7.66-4-7.66-9.09,0-5.4,3.4-9.37,7.66-9.37,14.2,0,28.11.57,44,.57,19.59,0,36.63-.85,54.23-.85,60.47,0,85.18,42,85.18,105,0,48.55-24.14,74.39-84.33,74.39C514,848.88,487.89,847.46,470,847.46Zm74.67-71.27c0-72.68-7.95-89.15-30.1-89.15-9.93,0-15.61,4-16.75,18.17-1.13,13.63-2,30.1-2,46,0,23,1.14,45.71,2,61.9.85,13.34,7.1,18.45,16.47,18.17C543.26,831,544.68,821.91,544.68,776.19Z" transform="translate(-1)"/><path class="cls-3" d="M156.59,391.65A774.93,774.93,0,0,0,110.88,319c-6.82-9.37-11.36-13.63-11.36-19,0-6,2.55-8.23,8-8.23,7.1,0,26.4,1.42,46.85,1.42,11.07,0,36.34-1.42,38.9-1.42,5.39,0,8.23,4,8.23,9.08,0,6.54-2.84,9.09-8.23,9.09-2,0-4.26-.85-6.82-.85-4.54,0-7.38,2.55-7.38,7.66,0,16.19,6.53,30.95,20.16,63.32,4,9.37,9.94,13.91,15.9,13.91,8.52,0,13.63-11.92,13.63-28.11,0-43.44-8.24-46.56-8.24-65,0-5.67,2.56-9.08,8.24-9.08,3.12,0,10.5,1.42,24.13,1.42,17.89,0,25.84-1.42,31.8-1.42s9.08,1.7,9.08,8.23c0,11.08-13.05,29.82-36.62,67.29-23.28,37.2-29.25,46.57-29.25,67,0,17,8.52,19,16.19,19,5.68,0,9.37-.85,13.34-.85,4.83,0,7.39,4,7.39,9.09,0,4-2.56,9.08-7.39,9.08-9.94,0-39.46-.57-59.91-.57-19.87,0-48.55.57-58.2.57-4.83,0-7.38-5.11-7.38-9.08,0-5.11,2.55-9.09,7.38-9.09,4,0,7.66.85,13.34.85,7.39,0,15.34-2.55,15.34-28.1C168,417.21,163.69,404.71,156.59,391.65Z" transform="translate(-1)"/><path class="cls-2" d="M413.24,461.78c0-4.26,1.7-8.8,6.82-8.8,7.38,0,7.66-5.11,8.23-10.5,1.14-13.35.85-25.27.85-39.47,0-16.75-2.27-19-23.85-19-21.86,0-23.85,2.27-23.85,19,0,14.2-.28,26.12.85,39.47.57,5.39.85,10.5,8.24,10.5,5.11,0,6.81,4.54,6.81,8.8,0,5.4-1.7,8.8-6.81,8.8-11.93,0-24.14-.57-37.48-.57-15.9,0-30.1.57-44.29.57-4.26,0-7.67-4-7.67-9.37,0-5.11,2.27-9.08,7.67-9.08,1.7,0,4,.85,6.24.85,7.1,0,7.67-8.8,8.24-17.89,1.13-19,1.42-41.73,1.42-64.16,0-15.34-.57-30.67-1.42-43.73-.57-9.09-1.14-17.89-8.24-17.89-2.27,0-4.54.85-6.24.85-5.4,0-7.67-4-7.67-9.08,0-5.4,3.41-9.37,7.67-9.37,14.19,0,28.39.57,44.29.57,13.34,0,25.55-.57,37.48-.57,5.11,0,6.81,3.41,6.81,8.8,0,4.26-1.7,8.8-6.81,8.8-7.39,0-7.67,5.11-8.24,10.51-.85,10.22-.85,19.59-.85,30.38,0,14.19,1.7,16.18,23.85,16.18,23.28,0,23.85-3.4,23.85-16.18,0-10.79,0-20.16-.85-30.38-.57-5.4-.85-10.51-8.23-10.51-5.12,0-6.82-4.54-6.82-8.8,0-5.39,1.7-8.8,6.81-8.8,11.93,0,24.14.57,37.48.57,15.9,0,30.1-.57,44.3-.57,4.26,0,7.66,4,7.66,9.37,0,5.11-2.27,9.08-7.66,9.08-1.71,0-4-.85-6.25-.85-7.1,0-7.67,8.8-8.23,17.89-.86,13.06-1.42,28.39-1.42,43.73,0,22.43.28,45.14,1.42,64.16.56,9.09,1.13,17.89,8.23,17.89,2.27,0,4.54-.85,6.25-.85,5.39,0,7.66,4,7.66,9.08,0,5.4-3.4,9.37-7.66,9.37-14.2,0-28.4-.57-44.3-.57-13.34,0-25.55.57-37.47.57C414.94,470.58,413.24,467.18,413.24,461.78Z" transform="translate(-1)"/><path class="cls-2" d="M230.55,499.08c-17.88,0-20.44,11.35-21.29,23-2,30.95-1.42,76.94-.29,103.06.57,13.06,3.41,17.89,12.78,17.89,26.41,0,38.61-76.38,56.22-76.38,4.83,0,7.38,1.71,7.38,7.1,0,4.83-1.7,24.7-1.7,44,0,17,1.7,29,1.7,36.06,0,4-4,6.81-6.81,6.81-16.76,0-63.89-.57-96.54-.57-15.62,0-38.61.57-46.28.57-5.39,0-7.67-5.11-7.67-9.08,0-5.12,3.41-9.09,7.67-9.09,1.71,0,4.54.85,5.4.85,7.09,0,8.51-4.83,9.08-18.17,1.14-27.54,2-75,0-107.89-.57-9.09-1.13-18.17-8.23-18.17-2.27,0-4.54.85-6.25.85-5.39,0-7.67-5.11-7.67-9.09,0-5.11,3.41-9.08,7.67-9.08,14.2,0,28.39.57,44.29.57,23.57,0,44-.57,65.59-.57,4.54,0,8,3.4,8,9.37,0,3.4-2,9.37-8,9.37C242.19,500.5,237.08,499.08,230.55,499.08Z" transform="translate(-1)"/><path class="cls-3" d="M434.93,617.69c0,2.84,1.42,5.4,4,8.24,5.11,6,14.19,16.46,31.23,16.46,12.21,0,13.34-4.83,13.34-9.37,0-3.69-1.13-6.81-1.13-9.65,0-5.68,3.12-9.37,8.23-9.37s7.95,2.27,9.37,7.66a31,31,0,0,1,.85,8.52c-.28,39.18-11.36,54-35.77,54-24.14,0-29.53-15.9-32.94-44-.28-2.84-1.13-4-4.26-4s-3.12,2-4,4C418.75,654.6,411.08,664,380.42,664c-42.31,0-64.17-27-64.17-82.06,0-62.74,24.13-105,90.57-105,64.74,0,88,49.41,88,97.1,0,21-7.38,40.89-33.22,40.89-13.63,0-16.75-.85-21.58-.85C436.35,614,434.93,615.42,434.93,617.69ZM405.4,493.61c-19.31,0-27.82,15.62-27.82,107a5,5,0,0,0,5.11,5.39c2.55,0,4.83-2,4.83-5.68,0-14.19,4-21.86,19.59-21.86,10.5,0,17.31,4.26,17.6,21,0,4.26,2.55,6.24,5.11,6.24a4.7,4.7,0,0,0,4.83-5.1C435.21,505.26,427.26,493.61,405.4,493.61ZM406,602.93c-10.22,0-15.62,3.4-15.62,15.33,0,10.22,4.26,17,14.77,17,11.92,0,16.47-4.54,16.47-17.31C421.59,605.76,415.62,602.93,406,602.93Z" transform="translate(-1)"/><path class="cls-3" d="M326.36,713.73c0-11.64-.85-15.33-6-15.33-2.84,0-6.53,3.41-9.09,11.07-8.23,25-21.86,82.06-30.38,126.92-2,11.07-7.66,11.92-28.39,11.92-23,0-22.71-1.42-25.55-11.92-9.37-34.64-29.82-104.2-41.74-129.19-2.27-4.83-5.11-8.8-7.67-8.8-4,0-5.39,4.26-5.39,11.64,0,67.86,4.82,104.77,25.55,118.4,8.8,5.67,8.8,8.52,8.8,12.77,0,2-1.7,7.38-6.81,7.38-4.54,0-11.93-.56-25.55-.56-17,0-30.39.56-38.05.56-4.54,0-7.67-2.55-7.67-7.09,0-5.4,3.41-7.39,9.09-14.2,11.07-13.34,17-29.53,17-119.25,0-11.07-1.43-21-10.8-21-2.83,0-5.67.85-7.66.85-5.39,0-7.67-5.11-7.67-9.08,0-5.12,2.28-9.09,7.67-9.09,18.74,0,42.3,1.14,59.06,1.14,12.77,0,17.31-1.14,26.12-1.14,10.5,0,12.77,3.12,15.61,15.9,3.41,14.77,12.21,51.39,18.46,69.56,5.11,14.77,7.38,17.32,11.92,17.32,6.25,0,8.24-4.26,12.5-18.45,6-19.31,10.79-42.59,15.9-68.14,2.27-11.36,2.84-16.19,14.48-16.19,16.18,0,26.68,1.14,53.37,1.14,12.21,0,25-1.14,35.5-1.14,5.39,0,7.66,4,7.66,9.09,0,4-2.27,9.08-7.66,9.08-2,0-4.83-.85-7.67-.85-7.1,0-7.67,8.8-8.23,17.89-.86,13.34-1.42,28.68-1.42,44,0,23.85.85,47.41,1.42,64.17.56,13.34,2,18.17,9.08,18.17,1.42,0,4.54-.57,6.82-.57,5.39,0,7.66,4.26,7.66,8.8,0,5.11-2.27,9.08-7.66,9.08-8.81,0-25.56-.56-46.29-.56s-34.35.56-44.29.56c-5.39,0-7.66-4-7.66-9.08,0-4.54,2.27-8.8,7.66-8.8,2.27,0,5.4.57,6.82.57,7.1,0,7.95-4.83,9.08-18.17C325.79,797.21,326.36,768.81,326.36,713.73Z" transform="translate(-1)"/><path class="cls-3" d="M719.85,687c-17.89,0-20.44,11.36-21.3,23-2,31-1.42,76.94-.28,103.07.57,13,3.41,17.88,12.78,17.88,26.4,0,38.61-76.38,56.21-76.38,4.83,0,7.39,1.71,7.39,7.1,0,4.83-1.71,24.7-1.71,44,0,17,1.71,29,1.71,36.06,0,4-4,6.81-6.82,6.81-16.75,0-63.88-.56-96.53-.56-15.62,0-38.62.56-46.29.56-5.39,0-7.66-5.11-7.66-9.08,0-5.11,3.41-9.09,7.66-9.09,1.71,0,4.55.86,5.4.86,7.1,0,8.52-4.83,9.09-18.17,1.13-27.55,2-75,0-107.9-.57-9.08-1.14-18.17-8.24-18.17-2.27,0-4.54.85-6.25.85-5.39,0-7.66-5.11-7.66-9.08,0-5.12,3.41-9.09,7.66-9.09,14.2,0,28.4.57,44.3.57,23.56,0,44-.57,65.59-.57,4.54,0,8,3.41,8,9.37,0,3.41-2,9.37-8,9.37C731.49,688.46,726.38,687,719.85,687Z" transform="translate(-1)"/><path class="cls-2" d="M956.35,846.32c0,5.4-3.41,8.24-9.37,8.24-4.55,0-9.09-2.84-9.09-8.24,0-1.7.57-4.26.57-8.23,0-4.26-3.12-6.53-7.66-6.53-18.75,0-27.55,21.29-70.14,21.29-37.19,0-69.84-16.75-69.84-91.71,0-57.92,29.53-95.68,82.91-95.68,34.35,0,46.56,21,62.17,21,4,0,7.1-1.7,7.1-6.24,0-2.84-.57-6-.57-6.82,0-6,3.13-8.52,8.24-8.52,4.54,0,8.52,2.56,8.52,8.52,0,3.13-1.14,21-1.42,32.65-.29,7.38.56,15.33.56,21,0,8.24-1.7,13.92-13.34,14.49-23,0-38.33-9.94-47.41-32.66-7.39-18.74-11.36-26.4-24.42-26.4-14.48,0-23,17.32-23,57.07,0,61.32,6,88.3,27.82,88.3,17.61,0,29.82-12.21,29.82-32.65,0-15.62-3.13-19.59-11.93-19.59-2.27,0-9.94,1.13-12.21,1.13-6,0-7.95-6-7.95-9.37,0-4.83,2.84-9.37,8.24-9.37,11.64,0,32.08,1.71,48.27,1.71,14.48,0,35.48-1.42,40.88-1.42,3.69,0,7.38,2.83,7.38,8.8s-2.55,8.8-7.38,8.8c-1.7,0-4-.28-5.4-.28-10.5,0-12.77,4-12.77,30.38C954.93,828.72,956.35,841.5,956.35,846.32Z" transform="translate(-1)"/><path class="cls-4" d="M882.76,359.25l.17,0v0Z" transform="translate(-1)"/><path class="cls-4" d="M850.53,374.39h0a210.24,210.24,0,0,0-58.39,10.7c-2.61,1-5.22,2.08-7.82,3.16s-5.19,2.19-7.74,3.33c-3.29,1.44-6.69,3.69-10.44,2.68-2.74-.78-5.35-3.26-7.73-4.83s-4.73-3.1-7.15-4.54c-4.8-2.93-9.72-5.64-14.75-8.19a237.27,237.27,0,0,0-30.61-12.76c-41.24-14-84.67-18.06-127.94-20.67-1.92,2.63-3.82,5.33-5.66,8.14,0,0-36.68,50.49-21.28,154.19h0v0l.82,9.29.72.24c.23,1.35.45,2.69.71,4.07,0,0-56.38-13.12-68.47,36-5.87,23.86,3,48.91,21.74,64.86a121.21,121.21,0,0,0,77.21,29.35S649.92,736,708,744.18,809,716.07,848.47,669.88c0,0,47,10.71,83-32.92,9.32-11.3,13.87-26.05,11.25-40.46-2.68-14.79-12.74-30-43.34-28.18l1.71-5.09,12.75-38.06c11.14-45,12-98.21.59-142.37-.1-.41-.2-.79-.3-1.18A214.64,214.64,0,0,0,850.53,374.39Z" transform="translate(-1)"/><path class="cls-5" d="M624.69,502.92l1-.46-2.39,1a69.12,69.12,0,0,1,17.24-4.68l-2.66.36a74.43,74.43,0,0,1,19.78,0l-2.66-.36a74.63,74.63,0,0,1,18.71,5.13l-2.39-1a70,70,0,0,1,15.11,8.79l-2-1.56c.61.47,1.2.95,1.79,1.43a10.74,10.74,0,0,0,7.07,2.93,10.19,10.19,0,0,0,7.08-2.93,10,10,0,0,0,2.92-7.07c-.11-2.5-.91-5.41-2.92-7.07A81.63,81.63,0,0,0,669,481.22a85.79,85.79,0,0,0-35.59-1.43,77.7,77.7,0,0,0-18.8,5.86c-2.14.93-4,3.82-4.59,6a10.23,10.23,0,0,0,1,7.71,10.07,10.07,0,0,0,6,4.59l2.66.36a10,10,0,0,0,5.05-1.36Z" transform="translate(-1)"/><path class="cls-5" d="M867.1,509.49c-17.55-13.21-41.27-17.23-62.5-12.47a73.73,73.73,0,0,0-17.66,6.55c-4.66,2.41-6.41,9.31-3.59,13.69A10.24,10.24,0,0,0,797,520.84c1.48-.76,3-1.47,4.52-2.12l-2.39,1a66.41,66.41,0,0,1,16.6-4.46l-2.65.35a69.89,69.89,0,0,1,18,0l-2.66-.36A68.74,68.74,0,0,1,845.8,520l-2.39-1a64.23,64.23,0,0,1,13.6,7.81c1.93,1.45,5.48,1.61,7.7,1a10,10,0,0,0,7-12.3l-1-2.39a10,10,0,0,0-3.59-3.58Z" transform="translate(-1)"/><path class="cls-5" d="M723.93,456.52a86.52,86.52,0,0,0-45.09-25.78,83.08,83.08,0,0,0-26.45-1.53,83.29,83.29,0,0,0-27.82,7.6,84,84,0,0,0-24.36,16.72c-3.75,3.67-4,10.52,0,14.15a10.19,10.19,0,0,0,14.14,0,76.28,76.28,0,0,1,6.71-5.86l-2,1.57a78.28,78.28,0,0,1,17.11-10l-2.39,1A78.84,78.84,0,0,1,653.64,449l-2.65.36a75.38,75.38,0,0,1,19.68,0l-2.66-.35a78.35,78.35,0,0,1,19.6,5.41l-2.39-1a78.5,78.5,0,0,1,17.2,10.08l-2-1.56a75.49,75.49,0,0,1,9.39,8.66c3.54,3.87,10.6,3.86,14.14,0a10.21,10.21,0,0,0,0-14.14Z" transform="translate(-1)"/><path class="cls-5" d="M911.4,486A84.23,84.23,0,0,0,875,452.45a89.28,89.28,0,0,0-12.7-4.9,85.23,85.23,0,0,0-13.9-2.65,84.08,84.08,0,0,0-54.87,13.31,10.58,10.58,0,0,0-4.59,6,10.22,10.22,0,0,0,1,7.71,10,10,0,0,0,13.69,3.59,74.78,74.78,0,0,1,12.14-6.55l-2.38,1a76.86,76.86,0,0,1,19.24-5.25l-2.66.36a74.57,74.57,0,0,1,19.46,0l-2.66-.35a71.51,71.51,0,0,1,18.09,5l-2.39-1a75.67,75.67,0,0,1,16.41,9.62l-2-1.57a76.78,76.78,0,0,1,13.52,13.5l-1.56-2a75.62,75.62,0,0,1,5.36,8,10.38,10.38,0,0,0,6,4.59A10,10,0,0,0,911.4,486Z" transform="translate(-1)"/><path class="cls-6" d="M905.05,551c10.65-26.44,29.63-85.18,11.4-161.14,0,0-12.92-2.94-21.73-1.77l9.6,48.73,10.57,7.64c2.78-3.47,3.89,93.09-22.32,121.59l3.61-.36,3.45.81Z" transform="translate(-1)"/><path class="cls-6" d="M560.79,518.26s-11.36-68.14,0-90L573,423.35c15.88-23.51,28.28-42.89,44.16-66.41a241.16,241.16,0,0,0-27.61-3.52c-6.79-.47-13.21-.63-19.22-.56-7.2,12.93-12.16,24.95-17.54,44-14.15,50.17-6.19,93.83-.22,118.31Z" transform="translate(-1)"/><path class="cls-7" d="M846.48,673.1c11.43-25.05,14.15-52.75,17.61-76.48v0a8,8,0,0,0,2.74-4.05c.33-1.14.72-2.18,1.11-3.29,0,0,0-.07,0-.1s0-.06.07-.13c.29-.59.55-1.17.84-1.76,0,0,18.85-16.76,36.2-18.76a1.24,1.24,0,0,0,.3-2.39,39.35,39.35,0,0,0-9.54-2.5,41.16,41.16,0,0,0-16.92,1.46,54.12,54.12,0,0,0-23.68,13.81,1.09,1.09,0,0,1-1.27.2c-18.92-9.17-36.68-19.22-54.7-29.73a73.3,73.3,0,0,0-16.51-7.3c-7.25-2.09-15.63-6.87-25.3-7.14-21.5-.59-38.34,3.63-49.6,6.72l-1.49.22a106.47,106.47,0,0,0-20.22,2.81,331,331,0,0,1-56.24,1.68A313.67,313.67,0,0,1,587,540.87a1.5,1.5,0,0,1-1-.62c-9.64-13.54-12-18.61-27.14-25.69-4.09-1.91-19.84-2.28-21.87,1.17-2.44,4.21,5.59.72,9.3,3.13,0,0,25.92,20.59,31.22,43.29s11.52,86.17,11.52,86.17-4.82,3.32-15.6.62a.92.92,0,0,0-.83,1.53s3.89,9,18,10.15C590.64,660.62,724,799.55,846.48,673.1Z" transform="translate(-1)"/><path class="cls-8" d="M551.41,551.61a19.34,19.34,0,0,0-11.71-8,23,23,0,0,0-14.39,1.56c-8.16,3.58-13.57,12.34-15.57,20.74-4.11,17.32,3.69,36.32,19.53,44.83a41.54,41.54,0,0,0,28.9,4,7.57,7.57,0,0,0,5.24-9.23,7.68,7.68,0,0,0-9.23-5.24c-1,.23-2,.41-3,.55l2-.27a34,34,0,0,1-8.67,0l2,.27a36.16,36.16,0,0,1-8.73-2.42l1.79.75a35,35,0,0,1-5.33-2.86c-.42-.28-.83-.58-1.24-.87-1-.73,1.54,1.26,0,0-.73-.6-1.44-1.24-2.11-1.91s-1.32-1.37-1.93-2.1c-1.26-1.51.74,1.07,0,0-.3-.42-.6-.83-.88-1.26a33.19,33.19,0,0,1-2.88-5.39l.76,1.79a35,35,0,0,1-2.32-8.47l.27,2a34.68,34.68,0,0,1,0-9.16l-.26,2a32.2,32.2,0,0,1,2.09-7.72L525,567a27.92,27.92,0,0,1,1.72-3.41c.33-.54.69-1.06,1-1.59.81-1.19-1.19,1.4-.25.31l.61-.72c.42-.47.86-.91,1.32-1.34.23-.22.47-.42.7-.63.92-.81-1.22.87-.49.37A19.6,19.6,0,0,1,533,558l-1.79.75a15.34,15.34,0,0,1,3.58-.93l-2,.26a16.44,16.44,0,0,1,3.71,0l-2-.27a15,15,0,0,1,3.54.94l-1.79-.76c.4.18.8.36,1.19.58s1.74,1.19.61.31.1.12.36.38.28.34.45.48c.56.47-1.19-1.63-.46-.6a8.1,8.1,0,0,0,4.48,3.44,7.62,7.62,0,0,0,5.78-.75c3.16-2,5.14-6.85,2.69-10.26Z" transform="translate(-1)"/><path class="cls-8" d="M899,596c.24-.25.49-.48.75-.72.94-.88-1.56,1-.43.34.6-.33,1.17-.68,1.8-1l-1.79.76a14,14,0,0,1,3.32-.88l-2,.27a15.91,15.91,0,0,1,3.84,0l-2-.27a16,16,0,0,1,3.72,1l-1.79-.75a8,8,0,0,1,2.79,1.61c-.08-.1-1.38-1.17-.63-.48.23.21.47.41.7.63a16.78,16.78,0,0,1,1.17,1.21,4.1,4.1,0,0,0,.48.57c-.07,0-1.1-1.51-.48-.63.32.47.64.93.93,1.42a24.31,24.31,0,0,1,1.63,3.22l-.75-1.79a29.36,29.36,0,0,1,1.85,6.95l-.26-2a33.75,33.75,0,0,1,0,8.58l.26-2a35.08,35.08,0,0,1-2.35,8.65l.76-1.79a34.24,34.24,0,0,1-2.79,5.29c-.27.42-.55.83-.84,1.24-1.13,1.59.86-1,0,0-.64.77-1.28,1.53-2,2.25s-1.43,1.39-2.19,2l-.58.48.6-.47c-.43.26-.83.6-1.25.88a33.1,33.1,0,0,1-5.37,2.9l1.79-.76a35.23,35.23,0,0,1-8.85,2.38l2-.27a34.78,34.78,0,0,1-8.77,0l2,.27a33.22,33.22,0,0,1-7.39-1.92,7.51,7.51,0,0,0-8.47,11,8.69,8.69,0,0,0,4.49,3.45,40.29,40.29,0,0,0,46.46-14,40.78,40.78,0,0,0,7.73-23.5c.11-8.69-2.78-18.15-9.25-24.23a23,23,0,0,0-14.79-6.32,19.5,19.5,0,0,0-14.7,5.67c-2.73,2.82-3,7.84,0,10.61A7.63,7.63,0,0,0,899,596Z" transform="translate(-1)"/><path class="cls-9" d="M899.69,338.45c-14.58-23.51-37.25-41.69-61.88-53.83-16.12-7.94-33.21-12.61-50.68-16.42A227.17,227.17,0,0,0,678,271.28a191.24,191.24,0,0,0-81,46.8h0a198.78,198.78,0,0,0-20.83,24.15c-1,1.34.38,3,1.76,3.07,46.91,2.85,94.63,7.38,138.73,24.74a219.32,219.32,0,0,1,30.91,15c4.46,2.64,8.73,5.46,13,8.43,3.92,2.77,7.46,3.82,12.09,2.09,9.72-3.63,18.74-8.37,28.78-11.26a206.71,206.71,0,0,1,35.39-6.9q4.56-.48,9.13-.77c3.74-.23,4.77-.26,7.76-.32q9.41-.19,18.82.42a213.54,213.54,0,0,1,41.1,6.82,2.06,2.06,0,0,0,2.51-2.51C912.21,365.94,907.84,351.91,899.69,338.45Z" transform="translate(-1)"/><ellipse class="cls-10" cx="658.95" cy="499.49" rx="46.74" ry="95.7" transform="translate(-29.96 958.27) rotate(-70.86)"/><ellipse class="cls-10" cx="865.49" cy="524.32" rx="95.7" ry="46.74" transform="matrix(0.99, -0.15, 0.15, 0.99, -68.81, 133.24)"/><path class="cls-11" d="M737.06,520.94s27.07-14.71,48.91,6.32" transform="translate(-1)"/><circle class="cls-12" cx="937.08" cy="502.91" r="4.36"/><circle class="cls-12" cx="938.29" cy="514.83" r="4.36"/><circle class="cls-12" cx="584.66" cy="466.39" r="4.36"/><circle class="cls-12" cx="580.11" cy="475.96" r="4.36"/><path class="cls-1" d="M813.79,425.06c-14-11.15-53-35.68-97.55-8.31a6,6,0,0,0-.57,9.65c20.49,17.85,56.75,36.57,97.7,8.05A6,6,0,0,0,813.79,425.06Z" transform="translate(-1)"/><circle class="cls-13" cx="764.61" cy="426.41" r="16.95"/><circle cx="764.61" cy="426.1" r="8.23"/><circle class="cls-1" cx="771.9" cy="420.34" r="3.37"/><path class="cls-2" d="M201.33,773.72h0c11.33.75,14.83-4.55,15.27-14.86.44-10.12-2.37-13.34-11.31-12.51a.9.9,0,0,1-1.14-1,1.61,1.61,0,0,1,1.23-1.65c8.2-1.65,10.85-5.69,11.21-14.11.38-9.15-4.08-12.15-11.66-9.23a115.48,115.48,0,0,0-15,7.92,81,81,0,0,0-8.76,6.24,4.19,4.19,0,0,0-1.3,2.58c-.06.93.25,1.34,1.09.72.32-.24.75-.73,1.18-1,1.33-1,1.42.28,1.4,1.57,0,4.11-.21,9.11-.47,14s-.66,9.38-1,12.69c-.27,3-.62,4.07-2.06,4.07-.18,0-.75,0-1.09,0-1,0-1.42.59-1.49,1.57a1.35,1.35,0,0,0,1.28,1.6c1.63.1,6.52.14,9.83.34C192.27,772.83,197.61,773.48,201.33,773.72Zm-6-31.67c.12-3.62.25-6.71.63-10.21a5.49,5.49,0,0,1,3.32-4.77c3.41-1.45,4.8,0,4.57,6.83-.21,6.3-1.46,9.57-5.55,10.59C195.93,745.06,195.22,744.29,195.3,742.05Zm2.95,6.56c4-.8,5.55,1.85,5.23,11.3-.21,6.24-1.14,9.5-5.44,9.41-2.74-.06-3.11-1.4-3.21-5-.08-3.15,0-8.08.13-12.32C195,750,195.8,749.11,198.25,748.61Z" transform="translate(-1)"/><path class="cls-2" d="M225.06,720.9c.62-.07,1.39-.52,2.08-.57,1.19-.1,3,.93,2.67,4.79-1.51,15.87-11.41,32-13.15,47.22-.2,1.7.36,2.43,1.29,2.49,1.22.08,3.69-.41,5.85-.27,1.86.13,5.78,1.07,6.59,1.13,1,.06,1.47-1.16,1.57-2.7.22-3.48-3-6.17-2.64-11.93.16-2.78.82-3.87,5.72-3.59,5.55.32,6.16.92,5.64,8-.31,4.15-1.43,5.81-2.66,5.73a17,17,0,0,1-2.09-.44c-.88-.06-1.48,1.06-1.59,2.61s.18,2.63,1.23,2.71c.69.05,7.61-.14,10.63.08,3.67.26,7,1.17,8.49,1.28.76.05,1.25-.84,1.35-1.86s-.22-2-.69-3.9c-3.45-16.61-5.86-34.49-4.86-51.06.18-2.91-.65-4.31-2-4.53-.93-.14-4.86-.14-9.09-.35s-11.9-.45-14-.2c-1.2.14-1.83,1.54-1.89,2.86S223.87,721,225.06,720.9Zm11.29,2.45c1.06,0,1.46,1.25,2.35,5.91a98.9,98.9,0,0,1,1.39,19.62c-.19,2.39-.75,3.77-5.62,3.52-4.09-.2-4.56-1.42-4.18-7.85C230.88,734.47,233.53,723.27,236.35,723.35Z" transform="translate(-1)"/><path class="cls-2" d="M263.27,725.54c.36.12.86,0,1.34.17,1.49.52,1.3,3.48,1.14,6.38-.26,4.75-.75,10.45-1.31,16-.74,7.38-1.64,14.64-2.28,19.75-.54,4.21-1,5.72-2.45,5.58-.23,0-.85-.26-1.09-.29-.75-.07-1.41.61-1.58,2.46-.15,1.56.35,2.44,1.1,2.49,1.57.11,6.49.1,9.86.35,3.66.27,9,1.06,10.82,1.19,12.54.88,17.89-3.82,18.6-13.87.91-12.95-1.9-26.95-13.54-35.09a79.64,79.64,0,0,0-10.62-6,84.16,84.16,0,0,0-9.49-4.22c-.78-.28-1.49.63-1.63,2.1S262.31,725.22,263.27,725.54ZM282,733.9c3.86,2.38,4.76,7.89,2.73,27.36-1.28,12.27-1.94,14.55-7.25,14.08-1.83-.16-2.79-1.73-2.5-5.56.36-4.82.85-11.68,1.6-18.63.52-4.82,1.25-9.76,1.89-13.79C279.11,733.64,280.25,732.8,282,733.9Z" transform="translate(-1)"/><path class="cls-2" d="M191.42,793.42a1,1,0,0,1-.57-1c.07-.55.37-.83.8-.67,4.63,1.62,6.48-.71,7.23-6.39.81-6.18-1.45-8.89-5.93-9.21-2.2-.15-6.71-.23-9.16-.42-2.06-.16-3.86-.37-5.74-.51a.89.89,0,0,0-.89.9c0,.57.18,1,.73,1.12.21,0,.49,0,.77,0,.87.13.9,1,.86,1.8-.12,2.64-.36,5.76-.64,8.79s-.62,5.7-.86,7.68c-.23,1.79-.43,2.31-1.11,1.53-.08-.09-.35-.44-.51-.62-.46-.53-.67-.4-.71.2a2.68,2.68,0,0,0,.56,1.74c.73,1,3,3.54,4.64,5.28,1.8,1.92,4.53,4.75,6.53,6.46h0c6.08,5.21,8.65,2.37,9.57-4.62S196.46,795.91,191.42,793.42Zm-5.28-6.56c.28-2.29.54-4.25,1-6.37.21-1,.79-2,2.19-1.85,2,.27,2.72,1.63,2.14,6.05-.53,4.09-1.45,5.88-3.79,4.95A2.23,2.23,0,0,1,186.14,786.86Zm-.2,18.91c-1.46-1.21-1.56-2.27-1.39-4.66.15-2.08.48-5.25.81-7.94.16-1.27.63-1.5,2-.85,2.24,1,2.95,3.3,2.14,9.45C189,805.83,188.22,807.67,185.94,805.77Z" transform="translate(-1)"/><path class="cls-2" d="M219,801.62c.77-7.54,2.09-13.84,3.9-18.28a9.64,9.64,0,0,0,.8-3c.1-1-.11-1.86-.82-1.91-.92-.06-2.19.07-3.47,0-1.07-.08-2.29-.39-3.32-.46-.46,0-1,.44-1.2,2-.78,6.89,2.78,14.46,1.45,27-.72,6.79-2.29,9.22-4.83,8.39-3.93-1.28-4-7.92-2.49-20,.52-4.36,1-8.08,1.51-11.72.19-1.26.4-2.44,1-2.38.25,0,.47.26.72.29.68.07,1.08-.91,1.19-1.84.12-1.08-.06-2-.74-2-1.81-.14-3.25-.1-5.24-.25s-3.79-.41-5.6-.54c-.46,0-.89.5-1,1.57s0,1.78.58,1.85c.25,0,.6-.12.95-.08.85.1.77,1,0,7.24-.7,5.45-1.43,10.28-2,14.82-1.47,11.34-.12,17.8,7,20.93,6.54,2.86,9.78-3,11-14.91C218.57,806.31,218.79,803.81,219,801.62Z" transform="translate(-1)"/><path class="cls-2" d="M244.79,806.47c.93-18,3.71-21,3.85-24,.06-1.24-.34-2.32-1-2.32-.89,0-2.07.1-3.28,0-1-.07-2.13-.31-3.23-.46-.66-.09-1.2.94-1.28,2.2-.34,5.33,4.12,8,3,29.38-.07,1.17-.44,1.79-.79,1.79s-.71-.24-.89-1.11c-2.16-9.42-4.35-18.91-4.4-28.94,0-2.21-.14-3.64-1.1-3.71-1.53-.1-3.58.07-5.15-.05-1.92-.13-3.85-.58-5.59-.71-.5,0-.88.94-1,1.93-.12,1.23.07,2.17.58,2.21.28,0,.59-.18,1-.14,1,.08,1.18.56.27,10.52-2.53,27.72-5.26,28.63-5.56,31.77-.11,1.15.12,2,.62,2.11.85.2,2.41.32,4.38.67,1.28.22,2.7.67,4,.84.67.08,1.08-.67,1.19-2.08.33-4.31-5-7.33-2.7-33.8.11-1.24.47-1.68.77-1.65s.49.21.63.77c1.09,4,3.11,20.32,5.64,34.42.37,2,.75,2.89,1.81,2.92s2.18-.26,3.36-.26c1,0,2.11.27,3,.23s1.35-1.08,1.46-3.33C244.53,822.91,244.53,811.6,244.79,806.47Z" transform="translate(-1)"/><path class="cls-2" d="M299,807.89a7,7,0,0,0-3-6.25c.48-1.25,1.2-2.84,2.27-5.06s2-3.94,2.66-5.24c1.43-2.72,2.3-4.37,2.45-6.48a7.08,7.08,0,0,0-3.41-6.72,23.75,23.75,0,0,0,3.8-11.92c1.27-18.08-4.5-32.57-16.25-40.79a88.48,88.48,0,0,0-11.44-6.53l-1.12-.56a84.23,84.23,0,0,0-9.08-4,7.18,7.18,0,0,0-6.31.71,8,8,0,0,0-2.79,3.19c-.5-4.8-3.18-6.91-4.93-7.77a8.21,8.21,0,0,0-2.43-.77,38.48,38.48,0,0,0-4.44-.24c-1.54,0-3.4-.09-5.33-.19-.48,0-11.67-.57-15.1-.16a8.48,8.48,0,0,0-7,6.16,11.94,11.94,0,0,0-1.85-1.13c-3.65-1.8-8.05-1.73-13.09.22a120.74,120.74,0,0,0-16.08,8.48,86.23,86.23,0,0,0-9.41,6.72,10.57,10.57,0,0,0-3.61,7.06,7.11,7.11,0,0,0,3.55,7c-.08,2.58-.2,5.4-.36,8.37-.23,4.26-.56,8.17-.83,11.23a7.84,7.84,0,0,0-4.76,6.94,8,8,0,0,0,.32,2.85,7.64,7.64,0,0,0-.67,2.54,7.46,7.46,0,0,0,2.19,6c-.11,1.67-.26,3.56-.45,5.63-.13,1.29-.26,2.52-.39,3.66a6.88,6.88,0,0,0-2.82,5.25,9,9,0,0,0,1.89,6.13c.91,1.18,3.38,4,5,5.72,2,2.13,4.83,5.07,7,7a21.32,21.32,0,0,0,4.32,3h0a10.5,10.5,0,0,0,7.27,1,17.24,17.24,0,0,0,9,9.83h0c.3.16.61.3.93.44a12.17,12.17,0,0,0,9.93.38,7,7,0,0,0,3.18,3.17l.77.37.71.17c.57.13,1.37.25,2.37.38.67.09,1.46.19,2.36.35.42.08.86.19,1.31.3a28.79,28.79,0,0,0,3,.59,7.1,7.1,0,0,0,3.92-.61,8.93,8.93,0,0,0,.81.45h0a7.55,7.55,0,0,0,3.19.79,16.16,16.16,0,0,0,2.66-.16,8,8,0,0,1,.93-.1c.22,0,.45,0,.67.07a15.5,15.5,0,0,0,2.62.16,7.74,7.74,0,0,0,3-.75,6.75,6.75,0,0,0,2.86.29c.57-.07,1.39-.22,2.39-.43.68-.15,1.48-.32,2.38-.47.43-.07.87-.12,1.32-.17a27.4,27.4,0,0,0,3-.45,7.4,7.4,0,0,0,3.55-1.93,7.72,7.72,0,0,0,4.2-.18,20.13,20.13,0,0,0,2.38-1,9.72,9.72,0,0,1,1.09-.48,5.47,5.47,0,0,1,.75-.21,16.32,16.32,0,0,0,2.35-.75,7.67,7.67,0,0,0,3.69-3.07,6.82,6.82,0,0,0,4.3-.76c1.53-.83,5.4-3.24,7.94-5,2.76-1.92,6.41-4.81,7.71-6A9.19,9.19,0,0,0,299,807.89Zm-39.62-77.17c0,.35,0,.71-.06,1-.22,4.2-.65,9.49-1.28,15.72,0,.32-.07.63-.1.95a164.21,164.21,0,0,1-1.28-20.84A7.8,7.8,0,0,0,259.41,730.72ZM223,727.64l0-.6.14.05C223.08,727.27,223,727.46,223,727.64Z" transform="translate(-1)"/><path class="cls-2" d="M292.63,807.62c0-.65-.21-.93-.66-.57s-.87.81-1.52,1.3c-.87.66-1.85,1-1.78-2.14.09-3.7.8-6.05,3.87-12.42,2.82-5.85,4.4-8.1,4.49-9.38.05-.71-.3-.91-.94-.95s-1.67.08-3.8,0c-1.67-.1-2.68-.37-3.27-.43s-.9.46-.91,1.27c-.06,2.81,1.22,3.72,1,10.84-.07,2.71-.66,4.87-1.62,5.25-.68.27-1.25-.19-1.68-1.44-1.57-5.12-2.6-9-2.56-12.1,0-.95.41-1.43,1-1.43.32,0,.6.16.85.16.6,0,.89-.39.91-1.4,0-.75-.28-1.39-.87-1.41s-3.73,0-5.3-.07c-2.45-.15-4.87-.61-5.9-.68a.63.63,0,0,0-.64.32.86.86,0,0,0-.67-.41c-.9,0-2.06.06-3.27,0-1-.07-2.12-.28-3.24-.42-.66-.09-1.15.82-1.17,1.93-.09,4.73,4.44,6.78,4.21,24.94,0,1-.35,1.6-.68,1.68s-.7,0-.91-.72c-2.49-7.5-5.13-15.74-5.68-24.83-.13-2-.32-3.31-1.28-3.38-1.53-.1-3.56,0-5.13-.05-1.92-.13-3.87-.57-5.61-.69-.5,0-.83.95-.87,1.95-.06,1.23.19,2.17.69,2.19.29,0,.58-.2,1-.17,1,.05,1.21.52.82,10.32-1.08,27.29-3.78,29-3.92,32.15-.05,1.15.23,1.89.74,1.83.86-.09,2.44-.51,4.43-.85,1.28-.21,2.71-.27,4-.55.66-.15,1-1,1.06-2.28.11-4-5.34-5.28-4.41-31,0-1.2.39-1.65.68-1.65s.5.15.67.68c1.29,3.74,4.16,18.72,7.28,30.32.46,1.64.87,2.28,1.89,2s2.09-1,3.21-1.38c.94-.35,2-.51,2.87-.86s1.23-1.36,1.25-3.23c0-2.32-.42-11.6-.37-15.89.14-12.36,1.93-16.31,2.59-18.69.19.51.45,1.09.77,1.86,1.33,3.17,3.77,10.16,5.59,15.66a18,18,0,0,1,1.21,5.82c-.05,5.49-1,6.53-2,7-.7.37-1.17.43-1.66.67a2.36,2.36,0,0,0-.81,2.06c0,.72.28,1.46.78,1.19,1.25-.68,4.91-3,7.35-4.64s6-4.49,7.12-5.5A2.76,2.76,0,0,0,292.63,807.62Z" transform="translate(-1)"/><path class="cls-1" d="M201.15,774.08c-3.72-.24-9.05-.89-12.71-1.11-3.31-.2-8.2-.24-9.82-.34a1.36,1.36,0,0,1-1.29-1.6c.07-1,.51-1.57,1.49-1.57.35,0,.92,0,1.09,0,1.44,0,1.8-1.08,2.07-4.07.29-3.31.69-7.76,1-12.69s.45-9.92.48-14c0-1.29-.08-2.53-1.41-1.57-.42.31-.86.8-1.17,1-.84.63-1.16.22-1.09-.71a4.14,4.14,0,0,1,1.3-2.58,79.9,79.9,0,0,1,8.75-6.24,116.13,116.13,0,0,1,15-7.92c7.59-2.93,12.05.08,11.66,9.23-.35,8.42-3,12.46-11.2,14.11a1.61,1.61,0,0,0-1.24,1.65.91.91,0,0,0,1.15,1c8.93-.83,11.75,2.38,11.31,12.51-.45,10.31-3.94,15.61-15.28,14.86Zm-3.05-29.24c4.09-1,5.34-4.28,5.55-10.58.23-6.8-1.16-8.28-4.57-6.83a5.52,5.52,0,0,0-3.33,4.76c-.37,3.51-.5,6.6-.63,10.22C195.05,744.65,195.76,745.42,198.1,744.84Zm-3.44,19.83c.09,3.61.47,5,3.2,5,4.31.09,5.24-3.17,5.45-9.41.31-9.45-1.26-12.1-5.23-11.3-2.46.5-3.23,1.38-3.29,3.38C194.64,756.59,194.58,761.52,194.66,764.67Z" transform="translate(-1)"/><path class="cls-1" d="M217.77,775.19c-.93-.06-1.48-.79-1.29-2.49,1.74-15.2,11.64-31.35,13.15-47.22.37-3.86-1.47-4.89-2.66-4.79-.69,0-1.46.5-2.09.56-1.19.13-1.68-1.21-1.62-2.52s.7-2.72,1.89-2.86c2.15-.25,9.82,0,14,.2s8.15.2,9.09.35c1.37.22,2.21,1.62,2,4.53-1,16.56,1.4,34.45,4.85,51.06.47,1.92.8,2.79.69,3.9s-.59,1.91-1.34,1.86c-1.46-.11-4.83-1-8.49-1.29-3-.22-9.94,0-10.64-.07-1-.08-1.32-1.26-1.22-2.71s.71-2.67,1.58-2.61a17.44,17.44,0,0,0,2.09.44c1.23.08,2.36-1.58,2.66-5.73.53-7-.09-7.65-5.64-8-4.89-.28-5.55.81-5.71,3.59-.34,5.76,2.86,8.45,2.64,11.92-.1,1.55-.59,2.77-1.57,2.7-.82,0-4.73-1-6.6-1.12C221.47,774.78,219,775.27,217.77,775.19Zm16.52-22.43c4.87.24,5.44-1.13,5.63-3.53a99.62,99.62,0,0,0-1.39-19.61c-.9-4.66-1.29-5.89-2.36-5.92-2.81-.07-5.46,11.13-6.06,21.21C229.74,751.34,230.21,752.56,234.29,752.76Z" transform="translate(-1)"/><path class="cls-1" d="M267.82,778.81c-3.37-.25-8.28-.24-9.85-.35-.76-.06-1.26-.93-1.11-2.49.18-1.85.83-2.53,1.59-2.46.23,0,.86.27,1.09.29,1.45.14,1.91-1.37,2.44-5.58.64-5.11,1.54-12.37,2.29-19.75.56-5.57,1.05-11.28,1.31-16,.15-2.91.34-5.86-1.15-6.38-.47-.17-1-.05-1.33-.17-1-.32-1.28-1.55-1.13-3s.85-2.38,1.63-2.1a85.78,85.78,0,0,1,9.49,4.22,79.64,79.64,0,0,1,10.62,6c11.64,8.14,14.45,22.13,13.54,35.09-.71,10-6.06,14.75-18.61,13.87C276.78,779.87,271.48,779.08,267.82,778.81Zm16.78-17.19c2-19.47,1.12-25-2.73-27.36-1.8-1.11-2.93-.26-3.53,3.46-.65,4-1.38,9-1.9,13.79-.75,7-1.24,13.81-1.59,18.63-.29,3.83.67,5.4,2.5,5.56C282.66,776.17,283.32,773.89,284.6,761.62Z" transform="translate(-1)"/><path class="cls-1" d="M187.24,810.41c-2-1.71-4.72-4.54-6.52-6.46-1.63-1.75-3.91-4.33-4.65-5.28a2.74,2.74,0,0,1-.56-1.74c.05-.6.26-.74.71-.21.17.19.43.54.52.63.68.77.88.26,1.1-1.53.25-2,.59-4.64.87-7.68s.52-6.15.64-8.79c0-.83,0-1.67-.86-1.8-.28,0-.57,0-.77,0-.56-.09-.77-.56-.73-1.13a.89.89,0,0,1,.88-.9c1.88.14,3.69.36,5.75.52,2.44.19,6.95.27,9.16.42,4.47.31,6.74,3,5.92,9.21-.75,5.68-2.59,8-7.22,6.38-.44-.15-.73.13-.8.68a1,1,0,0,0,.57,1c5,2.49,6.47,5.14,5.57,12s-3.5,9.83-9.58,4.62Zm.23-20.42c2.33.94,3.25-.86,3.79-4.94.58-4.42-.11-5.78-2.14-6-1.41-.19-2,.8-2.19,1.85-.42,2.12-.68,4.07-1,6.37A2.23,2.23,0,0,0,187.47,790Zm-3.09,11.48c-.17,2.39-.07,3.45,1.38,4.66,2.29,1.9,3.05.06,3.58-4,.8-6.15.1-8.4-2.14-9.45-1.38-.65-1.86-.42-2,.85C184.86,796.22,184.52,799.39,184.38,801.47Z" transform="translate(-1)"/><path class="cls-1" d="M208.85,795.72c-1.45,12.07-1.43,18.72,2.5,20,2.54.83,4.1-1.6,4.83-8.39,1.33-12.53-2.24-20.1-1.45-27,.18-1.59.73-2.07,1.2-2,1,.07,2.25.38,3.32.46,1.28.09,2.54,0,3.47,0,.71.05.91.91.82,1.9a9.62,9.62,0,0,1-.8,3c-1.82,4.44-3.13,10.74-3.9,18.28-.23,2.19-.45,4.69-.65,6.72-1.22,11.92-4.47,17.77-11,14.91-7.16-3.13-8.51-9.59-7-20.93.58-4.54,1.32-9.37,2-14.82.81-6.23.89-7.14,0-7.24-.36,0-.7.11-1,.08-.6-.07-.72-.85-.58-1.85s.57-1.6,1-1.57c1.81.13,3.57.39,5.6.54s3.43.11,5.24.24c.68.05.86.93.73,2-.1.93-.51,1.91-1.18,1.84-.25,0-.48-.27-.73-.29-.6-.06-.82,1.12-1,2.38C209.82,787.64,209.37,791.36,208.85,795.72Z" transform="translate(-1)"/><path class="cls-1" d="M228.29,791.31c-.29,0-.66.41-.77,1.65-2.31,26.47,3,29.49,2.7,33.8-.1,1.41-.52,2.16-1.18,2.08-1.29-.17-2.71-.62-4-.85-2-.35-3.54-.46-4.38-.66-.5-.12-.74-1-.63-2.11.31-3.14,3-4.05,5.56-31.77.91-10,.74-10.44-.26-10.52-.43,0-.74.17-1,.14-.5,0-.7-1-.58-2.21.1-1,.48-2,1-1.93,1.74.13,3.67.58,5.59.71,1.57.12,3.62,0,5.15.05,1,.07,1.07,1.5,1.09,3.71.05,10,2.25,19.52,4.41,28.94.18.87.58,1.11.89,1.11s.72-.62.78-1.79c1.17-21.36-3.29-24-2.94-29.38.08-1.26.62-2.29,1.28-2.2,1.1.15,2.23.39,3.22.46,1.21.08,2.39,0,3.29,0,.66,0,1.06,1.08,1,2.31-.14,3-2.93,6-3.85,24-.27,5.13-.26,16.44-.41,19.23-.11,2.25-.43,3.28-1.46,3.33s-2-.24-3-.23c-1.18,0-2.38.3-3.37.26s-1.43-.92-1.81-2.92c-2.52-14.11-4.55-30.39-5.64-34.42C228.79,791.52,228.55,791.34,228.29,791.31Z" transform="translate(-1)"/><path class="cls-1" d="M253.92,792.65c-.29,0-.63.45-.68,1.65-.93,25.7,4.52,27,4.42,31,0,1.31-.41,2.13-1.06,2.27-1.28.29-2.71.35-4,.56-2,.34-3.56.76-4.43.85-.51.06-.79-.68-.73-1.83.13-3.15,2.83-4.86,3.91-32.15.39-9.81.19-10.27-.81-10.32-.43,0-.73.19-1,.17-.51,0-.75-1-.7-2.19,0-1,.38-2,.88-1.95,1.74.12,3.69.56,5.61.69,1.56.1,3.6-.06,5.13,0,1,.07,1.14,1.37,1.28,3.38.54,9.09,3.18,17.33,5.68,24.83.21.69.61.8.91.72s.66-.69.68-1.69c.23-18.15-4.3-20.2-4.21-24.93,0-1.11.5-2,1.17-1.93,1.11.14,2.24.35,3.23.42,1.21.07,2.38,0,3.28,0,.66,0,1.09.89,1.08,1.89,0,2.45-2.66,5-2.83,20.1,0,4.28.4,13.57.37,15.89,0,1.87-.28,2.83-1.25,3.23s-1.93.51-2.86.86c-1.13.41-2.27,1.08-3.21,1.38s-1.43-.31-1.89-2c-3.12-11.6-6-26.58-7.29-30.32C254.43,792.8,254.18,792.65,253.92,792.65Z" transform="translate(-1)"/><path class="cls-1" d="M279.68,803.07c-1.82-5.5-4.27-12.49-5.59-15.66-.73-1.75-1.19-2.6-1.18-3.61s.3-1.5.87-1.46c1,.07,3.45.53,5.9.68,1.56.1,4.58.05,5.3.07s.88.66.86,1.41c0,1-.3,1.41-.9,1.4-.25,0-.53-.15-.85-.16-.57,0-1,.47-1,1.43,0,3.14,1,7,2.57,12.1.42,1.25,1,1.71,1.68,1.44,1-.38,1.55-2.54,1.61-5.25.18-7.12-1.1-8-1-10.84,0-.81.31-1.34.92-1.27s1.59.33,3.26.43c2.13.12,3.1,0,3.81,0s1,.24.93.95c-.09,1.28-1.66,3.53-4.48,9.38-3.08,6.37-3.78,8.72-3.87,12.41-.08,3.15.9,2.81,1.78,2.15.65-.5,1.07-1,1.52-1.3s.68-.08.65.56a2.8,2.8,0,0,1-.74,1.71c-1.14,1-4.62,3.75-7.13,5.5s-6.1,4-7.35,4.64c-.5.27-.78-.47-.77-1.19a2.36,2.36,0,0,1,.8-2.06c.5-.25,1-.3,1.67-.67.92-.48,1.9-1.53,1.95-7A17.68,17.68,0,0,0,279.68,803.07Z" transform="translate(-1)"/></svg>